<svg width="53" height="27" viewBox="0 0 53 27" fill="none" xmlns="http://www.w3.org/2000/svg">
<path d="M52.2371 14.7981L43.033 25.9884C42.7373 26.3465 42.3677 26.5255 41.998 26.5255C41.6284 26.5255 41.2587 26.3465 40.963 25.9884C40.3716 25.2722 40.3716 24.1532 40.963 23.437L47.6536 15.2905H26.0665C25.2532 15.2905 24.5879 14.4848 24.5879 13.5001C24.5879 12.5153 25.2532 11.7096 26.0665 11.7096H47.6536L40.963 3.56312C40.3716 2.84695 40.3716 1.72792 40.963 1.01174C41.5545 0.295565 42.4786 0.295565 43.07 1.01174L52.2741 12.202C52.8286 12.9629 52.8285 14.1267 52.2371 14.7981Z" fill="#9A9A9A"/>
<rect y="11.5194" width="50" height="4.00159" rx="2.00079" fill="#9A9A9A"/>
</svg>
